<?xml version="1.0" encoding="UTF-8" standalone="no"?>
<!DOCTYPE svg PUBLIC "-//W3C//DTD SVG 1.1//EN" "http://www.w3.org/Graphics/SVG/1.1/DTD/svg11.dtd">
<svg width="100%" height="100%" viewBox="0 0 842 842" version="1.1" xmlns="http://www.w3.org/2000/svg" xmlns:xlink="http://www.w3.org/1999/xlink" xml:space="preserve" xmlns:serif="http://www.serif.com/" style="fill-rule:evenodd;clip-rule:evenodd;stroke-miterlimit:1.5;">
    <g id="Artboard1" transform="matrix(1,0,0,1,-404,-704)">
        <rect x="404" y="704" width="842" height="842" style="fill:none;"/>
        <g transform="matrix(1,0,0,1,20,446)">
            <path d="M1226,435.752L1226,922.248C1226,1020.35 1146.35,1100 1048.25,1100L561.752,1100C463.648,1100 384,1020.35 384,922.248L384,435.752C384,337.648 463.648,258 561.752,258L1048.25,258C1146.35,258 1226,337.648 1226,435.752Z" style="fill:rgb(22,33,39);"/>
        </g>
        <g transform="matrix(2.32977,0,0,2.53004,-1228.36,-1486.39)">
            <circle cx="881.359" cy="934.641" r="56.359" style="fill:rgb(51,204,191);stroke:rgb(22,33,39);stroke-width:8.57px;"/>
        </g>
        <g transform="matrix(2.32977,0,0,2.53004,-981.645,-1239.68)">
            <circle cx="881.359" cy="934.641" r="56.359" style="fill:rgb(51,204,191);stroke:rgb(22,33,39);stroke-width:8.57px;"/>
        </g>
        <g transform="matrix(2.32977,0,0,2.53004,-1475.08,-1239.68)">
            <circle cx="881.359" cy="934.641" r="56.359" style="fill:rgb(51,204,191);stroke:rgb(22,33,39);stroke-width:8.57px;"/>
        </g>
        <g transform="matrix(2.32977,0,0,2.53004,-1228.36,-992.957)">
            <circle cx="881.359" cy="934.641" r="56.359" style="fill:rgb(51,204,191);stroke:rgb(22,33,39);stroke-width:8.57px;"/>
        </g>
    </g>
</svg>
